<svg id="Layer_1" data-name="Layer 1" xmlns="http://www.w3.org/2000/svg" viewBox="0 0 40 80">
  <path d="M41,20.05048V0H39V20.05048a19.97325,19.97325,0,0,0,0,39.899V80h2V59.94952a19.97325,19.97325,0,0,0,0-39.899Zm0,37.899V43.82837l4.65686,4.65692L47.071,47.071l-5.65686-5.65686L40,40l-1.41418,1.41418L32.929,47.071l1.41418,1.41425L39,43.82837V57.94946a17.976,17.976,0,0,1,0-35.89892V31l-.41418.41418L32.929,37.071l1.41418,1.41425L40,32.82837l5.65686,5.65692L47.071,37.071l-5.65686-5.65686L41,31V22.05054a17.976,17.976,0,0,1,0,35.89892Z" transform="translate(-20)" style="fill: #1d1d1b"/>
</svg>
