<svg id="Layer_1" data-name="Layer 1" xmlns="http://www.w3.org/2000/svg" viewBox="0 0 30 40">
  <path d="M35,20A14.98878,14.98878,0,0,0,21,5.05048V0H19V5.05048a14.98172,14.98172,0,0,0,0,29.899V40h2V34.94952A14.98882,14.98882,0,0,0,35,20ZM21,32.94946V23.82837L24.24261,27.071l1.41425-1.41418-4.24268-4.24268L20,20l-1.41418,1.41418-4.24268,4.24268L15.75739,27.071,19,23.82837v9.12109A12.987,12.987,0,0,1,19,7.05054V13l-.41418.41418-4.24268,4.24268L15.75739,19.071,20,14.82837,24.24261,19.071l1.41425-1.41418-4.24268-4.24268L21,13V7.05054a12.987,12.987,0,0,1,0,25.89892Z" transform="translate(-5)" style="fill: #1d1d1b"/>
</svg>
