<svg id="Layer_1" data-name="Layer 1" xmlns="http://www.w3.org/2000/svg" viewBox="0 0 7 40"><defs><style>.cls-1{fill:#1d1d1b;}</style></defs><path class="cls-1" d="M21,5" transform="translate(-19)"/><path class="cls-1" d="M26,16.5A4.47,4.47,0,0,0,24.3,13a4.48,4.48,0,0,0-2.8-8H21V0H19V7h2.5a2.5,2.5,0,0,1,0,5H19v2h2.5a2.5,2.5,0,0,1,0,5H19v2h2.5a2.5,2.5,0,0,1,0,5H19v2h2.5a2.5,2.5,0,0,1,0,5H19v7h2V35h.5a4.48,4.48,0,0,0,2.8-8,4.45,4.45,0,0,0,0-7A4.47,4.47,0,0,0,26,16.5Z" transform="translate(-19)"/></svg>